<?xml version="1.0" encoding="UTF-8"?>
<svg id="Layer_2" data-name="Layer 2" xmlns="http://www.w3.org/2000/svg" viewBox="0 0 1993.102 2682.97">
  <defs>
    <style>
      .cls-1 {
        font-family: Stencil, Stencil;
        font-size: 232.207px;
      }

      .cls-1, .cls-2 {
        fill: #231f20;
      }

      .cls-3 {
        fill: #242122;
      }

      .cls-3, .cls-4, .cls-5, .cls-6, .cls-7, .cls-8 {
        stroke-width: 0px;
      }

      .cls-9 {
        stroke-width: .25px;
      }

      .cls-9, .cls-10, .cls-11 {
        fill: none;
        stroke: #231f20;
      }

      .cls-9, .cls-11 {
        stroke-miterlimit: 10;
      }

      .cls-4 {
        fill: #f08421;
      }

      .cls-5 {
        fill: #293a83;
      }

      .cls-2 {
        font-family: Impact, Impact;
        font-size: 108.847px;
      }

      .cls-10 {
        stroke-linecap: round;
        stroke-linejoin: round;
      }

      .cls-10, .cls-11 {
        stroke-width: 6px;
      }

      .cls-6 {
        fill: #fff;
      }

      .cls-7 {
        fill: #e6242e;
      }

      .cls-8 {
        fill: #f4ea1a;
      }
    </style>
  </defs>
  <g id="Layer_2-2" data-name="Layer 2">
    <g id="Logo_Vector" data-name="Logo Vector">
      <g>
        <g>
          <path class="cls-4" d="M1773.28,1365.358c0,50.94-4.934,100.792-14.295,148.975-11.465-9.724-27.139-23.511-44.845-40.926-26.413-25.833-72.274-74.088-116.321-141.065-9.143-13.932-17.125-26.921-24.382-39.693-17.27-30.259-30.84-59.213-47.965-95.858-53.988-115.45-73.725-192.949-122.271-198.754-6.458-.726-11.828,0-14.803.508-8.417.435-22.495,2.322-35.919,11.175-15.964,10.594-22.858,25.688-26.123,32.799-13.497,29.026-38.749,79.458-71.331,145.999-73.145-167.914-129.165-293.595-154.707-359.484-8.345-21.406-27.865-73.725-74.524-91.431-11.03-4.281-20.971-5.442-27.429-5.878-8.2,1.524-22.495,5.08-37.661,13.932-39.838,23.221-54.859,65.308-61.099,82.143-22.06,58.777-78.805,185.402-155.941,358.758-2.903-4.354-7.837-11.901-13.497-21.624-51.23-86.497-50.94-143.097-93.463-161.311-5.37-2.322-14.803-5.37-28.3-5.08-4.499-.073-11.465.363-19.157,3.048-7.329,2.612-15.166,7.111-25.035,17.633-15.093,16.037-22.205,32.509-22.858,33.96-23.438,54.278-95.712,193.311-123.505,243.308-3.12,5.66-6.168,11.102-9.071,16.327-16.182,28.953-29.824,51.738-51.448,79.385-43.539,55.802-89.762,93.39-123.287,116.974-8.78-46.586-13.352-94.696-13.352-143.823,0-428.71,347.583-776.293,776.293-776.293s776.293,347.583,776.293,776.293Z"/>
          <path class="cls-5" d="M409.143,1313.039l78.224-83.086-3.265,64.8,36.645-54.206,24.962,33.38,25.47-41.725-.943,84.32,38.459-71.331,43.031,35.629,29.679-76.846,33.307,58.342,79.676-104.71,1.814,116.683,44.047-129.165,26.341,46.296s30.477-97.381,36.21-115.668l4.572,128.584,19.883-48.618,16.69,50.94,26.631-169.002,12.844,176.549,21.406-161.165,28.01,141.138-5.225-120.094,45.716,107.105,11.393-137.074,48.473,119.731,13.86-46.006,34.396,92.012,19.955-49.126,59.72,87.077,57.906-43.539,31.42,78.732,42.16-39.402,39.838,73.145-1.887-86.134,26.849,43.103,22.713-32.436,32.872,51.376v-64.365l60.446,64.365c7.256,12.771,15.239,25.76,24.382,39.693,44.047,66.977,89.907,115.232,116.321,141.065,17.706,17.415,33.38,31.203,44.845,40.926-18.141,93.245-52.972,180.613-101.372,258.692-18.431-24.89-1.742-69.009-1.742-69.009,0,0-60.446,20.245-64.147,68.718-24.744-29.534-1.379-68.718-1.379-68.718,0,0-60.446,14.803-65.816,70.823-23.583-23.801-1.742-70.823-1.742-70.823,0,0-60.446,20.245-64.074,68.718-24.744-29.534-1.451-68.718-1.451-68.718,0,0-57.181,14.005-65.235,66.324-21.769-24.091-.581-66.324-.581-66.324,0,0-60.446,20.245-64.147,68.718-24.672-29.534-1.379-68.718-1.379-68.718,0,0-60.446,14.803-65.743,70.823-23.583-23.801-1.742-70.823-1.742-70.823,0,0-60.519,20.245-64.147,68.718-24.744-29.534-1.451-68.718-1.451-68.718,0,0-57.253,14.005-65.235,66.396-27.792-30.767-.581-66.396-.581-66.396,0,0-47.892,4.136-66.324,65.235,0,0-25.688-13.424,0-65.235,0,0-37.588.073-64.147,53.19-26.559-53.117-64.147-53.19-64.147-53.19,25.688,51.811,0,65.235,0,65.235-18.504-61.099-66.396-65.235-66.396-65.235,0,0,27.212,35.629-.581,66.396-7.982-52.391-65.235-66.396-65.235-66.396,0,0,23.366,39.185-1.379,68.718-3.701-48.473-64.147-68.718-64.147-68.718,0,0,21.842,47.022-1.742,70.823-5.297-56.02-65.743-70.823-65.743-70.823,0,0,23.293,39.185-1.451,68.718-3.628-48.473-64.147-68.718-64.147-68.718,0,0,21.189,42.232-.581,66.324-7.982-52.319-65.235-66.324-65.235-66.324,0,0,23.366,39.185-1.379,68.718-3.628-48.473-64.147-68.718-64.147-68.718,0,0,21.842,47.022-1.742,70.823-5.297-56.02-65.743-70.823-65.743-70.823,0,0,23.293,39.185-1.451,68.718-3.628-48.473-64.074-68.718-64.074-68.718,0,0,22.422,37.588-1.959,67.412-48.691-79.168-83.522-167.696-101.227-262.248,33.525-23.583,79.748-61.172,123.287-116.974,21.624-27.647,35.266-50.432,51.448-79.385l.363.218Z"/>
          <path class="cls-6" d="M1657.612,1773.024c48.4-78.079,83.231-165.447,101.372-258.692,9.361-48.183,14.295-98.034,14.295-148.975,0-428.71-347.583-776.293-776.293-776.293S220.693,936.648,220.693,1365.358c0,49.126,4.572,97.236,13.352,143.823,17.706,94.551,52.537,183.08,101.227,262.248,136.566,222.119,381.834,370.223,661.714,370.223s523.915-147.378,660.626-368.627ZM996.551,372.097c548.732,0,993.551,444.457,993.551,992.68s-444.819,992.68-993.551,992.68S3,1913.074,3,1364.777,447.819,372.097,996.551,372.097Z"/>
          <path class="cls-4" d="M1655.871,1704.016s-16.69,44.119,1.742,69.009c-136.711,221.249-381.471,368.627-660.626,368.627s-525.148-148.104-661.714-370.223c24.382-29.824,1.959-67.412,1.959-67.412,0,0,60.446,20.245,64.074,68.718,24.744-29.534,1.451-68.718,1.451-68.718,0,0,60.446,14.803,65.743,70.823,23.583-23.801,1.742-70.823,1.742-70.823,0,0,60.519,20.245,64.147,68.718,24.744-29.534,1.379-68.718,1.379-68.718,0,0,57.253,14.005,65.235,66.324,21.769-24.091.581-66.324.581-66.324,0,0,60.519,20.245,64.147,68.718,24.744-29.534,1.451-68.718,1.451-68.718,0,0,60.446,14.803,65.743,70.823,23.583-23.801,1.742-70.823,1.742-70.823,0,0,60.446,20.245,64.147,68.718,24.744-29.534,1.379-68.718,1.379-68.718,0,0,57.253,14.005,65.235,66.396,27.792-30.767.581-66.396.581-66.396,0,0,47.892,4.136,66.396,65.235,0,0,25.688-13.424,0-65.235,0,0,37.588.073,64.147,53.19,26.559-53.117,64.147-53.19,64.147-53.19-25.688,51.811,0,65.235,0,65.235,18.431-61.099,66.324-65.235,66.324-65.235,0,0-27.212,35.629.581,66.396,7.982-52.391,65.235-66.396,65.235-66.396,0,0-23.293,39.185,1.451,68.718,3.628-48.473,64.147-68.718,64.147-68.718,0,0-21.842,47.022,1.742,70.823,5.297-56.02,65.743-70.823,65.743-70.823,0,0-23.293,39.185,1.379,68.718,3.701-48.473,64.147-68.718,64.147-68.718,0,0-21.189,42.232.581,66.324,8.055-52.319,65.235-66.324,65.235-66.324,0,0-23.293,39.185,1.451,68.718,3.628-48.473,64.074-68.718,64.074-68.718,0,0-21.842,47.022,1.742,70.823,5.37-56.02,65.816-70.823,65.816-70.823,0,0-23.366,39.185,1.379,68.718,3.701-48.473,64.147-68.718,64.147-68.718Z"/>
          <path class="cls-6" d="M1573.438,1292.648l-60.446-64.365v64.365l-32.872-51.376-22.713,32.436-26.849-43.103,1.887,86.134-39.838-73.145-42.16,39.402-31.42-78.732-57.906,43.539-59.72-87.077-19.955,49.126-34.396-92.012-13.86,46.006-48.473-119.731-11.393,137.074-45.716-107.105,5.225,120.094-28.01-141.138-21.406,161.165-12.844-176.549-26.631,169.002-16.69-50.94-19.883,48.618-4.572-128.584c-5.733,18.286-36.21,115.668-36.21,115.668l-26.341-46.296-44.047,129.165-1.814-116.683-79.676,104.71-33.307-58.342-29.679,76.846-43.031-35.629-38.459,71.331.943-84.32-25.47,41.725-24.962-33.38-36.645,54.206,3.265-64.8-78.224,83.086-.363-.218c2.903-5.225,5.95-10.667,9.071-16.327,27.792-49.997,100.066-189.03,123.505-243.308.653-1.451,7.764-17.923,22.858-33.96,9.869-10.522,17.706-15.021,25.035-17.633,7.692-2.685,14.658-3.12,19.157-3.048,13.497-.29,22.93,2.757,28.3,5.08,42.523,18.214,42.232,74.814,93.463,161.311,5.66,9.724,10.594,17.27,13.497,21.624,77.136-173.356,133.881-299.981,155.941-358.758,6.241-16.835,21.261-58.922,61.099-82.143,15.166-8.853,29.461-12.409,37.661-13.932,6.458.435,16.4,1.596,27.429,5.878,46.659,17.706,66.179,70.025,74.524,91.431,25.543,65.888,81.562,191.57,154.707,359.484,32.581-66.542,57.834-116.974,71.331-145.999,3.265-7.111,10.159-22.205,26.123-32.799,13.424-8.853,27.502-10.74,35.919-11.175,2.975-.508,8.345-1.234,14.803-.508,48.546,5.805,68.283,83.304,122.271,198.754,17.125,36.645,30.695,65.598,47.965,95.858Z"/>
        </g>
        <g>
          <ellipse class="cls-11" cx="996.551" cy="1364.777" rx="993.551" ry="992.68"/>
          <path class="cls-11" d="M234.045,1509.18c-8.78-46.586-13.352-94.696-13.352-143.823,0-428.71,347.583-776.293,776.293-776.293s776.293,347.583,776.293,776.293c0,50.94-4.934,100.792-14.295,148.975-18.141,93.245-52.972,180.613-101.372,258.692-136.711,221.249-381.471,368.627-660.626,368.627s-525.148-148.104-661.714-370.223c-48.691-79.168-83.522-167.696-101.227-262.248Z"/>
          <path class="cls-10" d="M1758.985,1514.333c-11.465-9.724-27.139-23.511-44.845-40.926-26.413-25.833-72.274-74.088-116.321-141.065-9.143-13.932-17.125-26.921-24.382-39.693-17.27-30.259-30.84-59.213-47.965-95.858-53.988-115.45-73.725-192.949-122.271-198.754-6.458-.726-11.828,0-14.803.508-8.417.435-22.495,2.322-35.919,11.175-15.964,10.594-22.858,25.688-26.123,32.799-13.497,29.026-38.749,79.458-71.331,145.999-73.145-167.914-129.165-293.595-154.707-359.484-8.345-21.406-27.865-73.725-74.524-91.431-11.03-4.281-20.971-5.442-27.429-5.878-8.2,1.524-22.495,5.08-37.661,13.932-39.838,23.221-54.859,65.308-61.099,82.143-22.06,58.777-78.805,185.402-155.941,358.758-2.903-4.354-7.837-11.901-13.497-21.624-51.23-86.497-50.94-143.097-93.463-161.311-5.37-2.322-14.803-5.37-28.3-5.08-4.499-.073-11.465.363-19.157,3.048-7.329,2.612-15.166,7.111-25.035,17.633-15.093,16.037-22.205,32.509-22.858,33.96-23.438,54.278-95.712,193.311-123.505,243.308-3.12,5.66-6.168,11.102-9.071,16.327-16.182,28.953-29.824,51.738-51.448,79.385-43.539,55.802-89.762,93.39-123.287,116.974"/>
          <path class="cls-10" d="M335.272,1771.428c24.382-29.824,1.959-67.412,1.959-67.412,0,0,60.446,20.245,64.074,68.718,24.744-29.534,1.451-68.718,1.451-68.718,0,0,60.446,14.803,65.743,70.823,23.583-23.801,1.742-70.823,1.742-70.823,0,0,60.519,20.245,64.147,68.718,24.744-29.534,1.379-68.718,1.379-68.718,0,0,57.253,14.005,65.235,66.324,21.769-24.091.581-66.324.581-66.324,0,0,60.519,20.245,64.147,68.718,24.744-29.534,1.451-68.718,1.451-68.718,0,0,60.446,14.803,65.743,70.823,23.583-23.801,1.742-70.823,1.742-70.823,0,0,60.446,20.245,64.147,68.718,24.744-29.534,1.379-68.718,1.379-68.718,0,0,57.253,14.005,65.235,66.396,27.792-30.767.581-66.396.581-66.396,0,0,47.892,4.136,66.396,65.235,0,0,25.688-13.424,0-65.235,0,0,37.588.073,64.147,53.19,26.559-53.117,64.147-53.19,64.147-53.19-25.688,51.811,0,65.235,0,65.235,18.431-61.099,66.324-65.235,66.324-65.235,0,0-27.212,35.629.581,66.396,7.982-52.391,65.235-66.396,65.235-66.396,0,0-23.293,39.185,1.451,68.718,3.628-48.473,64.147-68.718,64.147-68.718,0,0-21.842,47.022,1.742,70.823,5.297-56.02,65.743-70.823,65.743-70.823,0,0-23.293,39.185,1.379,68.718,3.701-48.473,64.147-68.718,64.147-68.718,0,0-21.189,42.232.581,66.324,8.055-52.319,65.235-66.324,65.235-66.324,0,0-23.293,39.185,1.451,68.718,3.628-48.473,64.074-68.718,64.074-68.718,0,0-21.842,47.022,1.742,70.823,5.37-56.02,65.816-70.823,65.816-70.823,0,0-23.366,39.185,1.379,68.718,3.701-48.473,64.147-68.718,64.147-68.718,0,0-16.69,44.119,1.742,69.009.073,0,.073.073.073.073"/>
        </g>
      </g>
      <g id="BIntang_Kiri" data-name="BIntang Kiri">
        <path class="cls-8" d="M125.342,1209.856c4.362,13.304,8.723,26.607,13.085,39.91,13.123.322,26.247.643,39.37.965-9.881,8.736-19.762,17.472-29.643,26.208,3.397,13.69,6.793,27.379,10.19,41.068-11.039-8.106-22.078-16.211-33.117-24.317-11.309,8.222-22.618,16.443-33.928,24.664,3.898-14.011,7.797-28.022,11.695-42.033-10.537-8.26-21.075-16.52-31.612-24.78,13.625-.823,27.25-1.647,40.875-2.47,4.362-13.072,8.723-26.144,13.085-39.216Z"/>
        <path class="cls-8" d="M120.498,1400.665c4.362,13.304,8.723,26.607,13.085,39.91,13.123.322,26.247.643,39.37.965-9.881,8.736-19.762,17.472-29.643,26.208,3.397,13.69,6.793,27.379,10.19,41.068-11.039-8.106-22.078-16.211-33.117-24.317-11.309,8.222-22.618,16.443-33.928,24.664,3.898-14.011,7.797-28.022,11.695-42.033-10.537-8.26-21.075-16.52-31.612-24.78,13.625-.823,27.25-1.647,40.875-2.47,4.362-13.072,8.723-26.144,13.085-39.216Z"/>
        <path class="cls-8" d="M166.063,1018.081c4.362,13.304,8.723,26.607,13.085,39.91,13.123.322,26.247.643,39.37.965-9.881,8.736-19.762,17.472-29.643,26.208,3.397,13.69,6.793,27.379,10.19,41.068-11.039-8.106-22.078-16.211-33.117-24.317-11.309,8.222-22.618,16.443-33.928,24.664,3.898-14.011,7.797-28.022,11.695-42.033-10.537-8.26-21.075-16.52-31.612-24.78,13.625-.823,27.25-1.647,40.875-2.47,4.362-13.072,8.723-26.144,13.085-39.216Z"/>
        <path class="cls-8" d="M160.022,1590.259c4.362,13.304,8.723,26.607,13.085,39.91,13.123.322,26.247.643,39.37.965-9.881,8.736-19.762,17.472-29.643,26.208,3.397,13.69,6.793,27.379,10.19,41.068-11.039-8.106-22.078-16.211-33.117-24.317-11.309,8.222-22.618,16.443-33.928,24.664,3.898-14.011,7.797-28.022,11.695-42.033-10.537-8.26-21.075-16.52-31.612-24.78,13.625-.823,27.25-1.647,40.875-2.47,4.362-13.072,8.723-26.144,13.085-39.216Z"/>
      </g>
      <g id="Bintang_Kanan" data-name="Bintang Kanan">
        <path class="cls-8" d="M1866.462,1209.856c-4.362,13.304-8.723,26.607-13.085,39.91-13.123.322-26.247.643-39.37.965,9.881,8.736,19.762,17.472,29.643,26.208-3.397,13.69-6.793,27.379-10.19,41.068,11.039-8.106,22.078-16.211,33.117-24.317,11.309,8.222,22.618,16.443,33.928,24.664-3.898-14.011-7.797-28.022-11.695-42.033,10.537-8.26,21.075-16.52,31.612-24.78-13.625-.823-27.25-1.647-40.875-2.47-4.362-13.072-8.723-26.144-13.085-39.216Z"/>
        <path class="cls-8" d="M1871.306,1400.665c-4.362,13.304-8.723,26.607-13.085,39.91-13.123.322-26.247.643-39.37.965,9.881,8.736,19.762,17.472,29.643,26.208-3.397,13.69-6.793,27.379-10.19,41.068,11.039-8.106,22.078-16.211,33.117-24.317,11.309,8.222,22.618,16.443,33.928,24.664-3.898-14.011-7.797-28.022-11.695-42.033,10.537-8.26,21.075-16.52,31.612-24.78-13.625-.823-27.25-1.647-40.875-2.47-4.362-13.072-8.723-26.144-13.085-39.216Z"/>
        <path class="cls-8" d="M1825.741,1018.081c-4.362,13.304-8.723,26.607-13.085,39.91-13.123.322-26.247.643-39.37.965,9.881,8.736,19.762,17.472,29.643,26.208-3.397,13.69-6.793,27.379-10.19,41.068,11.039-8.106,22.078-16.211,33.117-24.317,11.309,8.222,22.618,16.443,33.928,24.664-3.898-14.011-7.797-28.022-11.695-42.033,10.537-8.26,21.075-16.52,31.612-24.78-13.625-.823-27.25-1.647-40.875-2.47-4.362-13.072-8.723-26.144-13.085-39.216Z"/>
        <path class="cls-8" d="M1831.781,1590.259c-4.362,13.304-8.723,26.607-13.085,39.91-13.123.322-26.247.643-39.37.965,9.881,8.736,19.762,17.472,29.643,26.208-3.397,13.69-6.793,27.379-10.19,41.068,11.039-8.106,22.078-16.211,33.117-24.317,11.309,8.222,22.618,16.443,33.928,24.664-3.898-14.011-7.797-28.022-11.695-42.033,10.537-8.26,21.075-16.52,31.612-24.78-13.625-.823-27.25-1.647-40.875-2.47-4.362-13.072-8.723-26.144-13.085-39.216Z"/>
      </g>
      <g id="Mata_Angin" data-name="Mata Angin">
        <g>
          <polygon class="cls-7" points="1379.401 1340.976 1112.219 1384.733 1052.281 1394.529 998.438 1340.976 1379.401 1340.976"/>
          <polygon class="cls-6" points="1379.401 1340.976 998.438 1340.976 997.494 1339.96 1057.578 1280.385 1111.711 1290.544 1379.401 1340.976"/>
          <polygon class="cls-6" points="1112.219 1384.733 1217.655 1558.96 1052.281 1394.529 1112.219 1384.733"/>
          <polygon class="cls-7" points="1217.655 1558.96 1041.976 1454.902 1052.281 1394.529 1217.655 1558.96"/>
          <polygon class="cls-7" points="1212.72 1126.549 1111.711 1290.544 1057.578 1280.385 1212.72 1126.549"/>
          <polygon class="cls-6" points="1212.72 1126.549 1057.578 1280.385 1045.459 1216.383 1212.72 1126.549"/>
          <polygon class="cls-7" points="1045.459 1216.383 1057.578 1280.385 997.494 1339.96 996.841 1339.38 997.132 961.174 1045.459 1216.383"/>
          <polygon class="cls-6" points="998.438 1340.976 1052.281 1394.529 1041.976 1454.902 996.551 1720.778 996.841 1340.976 998.438 1340.976"/>
          <polygon class="cls-6" points="997.132 961.174 996.841 1339.38 938.935 1281.836 938.935 1281.764 949.892 1221.39 997.132 961.174"/>
          <polygon class="cls-7" points="996.841 1339.38 996.841 1340.613 996.479 1340.976 617.33 1340.976 881.464 1292.431 938.935 1281.836 996.841 1339.38"/>
          <polygon class="cls-7" points="953.375 1451.129 944.087 1392.932 996.479 1340.976 996.841 1340.976 996.551 1720.778 953.375 1451.129"/>
          <polygon class="cls-6" points="996.479 1340.976 944.087 1392.932 877.981 1382.411 617.33 1340.976 996.479 1340.976"/>
          <polygon class="cls-6" points="944.087 1392.932 953.375 1451.129 781.616 1554.025 944.087 1392.932"/>
          <polygon class="cls-7" points="949.892 1221.39 938.935 1281.764 782.849 1126.549 949.892 1221.39"/>
          <polygon class="cls-7" points="944.087 1392.932 781.616 1554.025 877.981 1382.411 944.087 1392.932"/>
          <polygon class="cls-6" points="938.935 1281.764 938.935 1281.836 881.464 1292.431 782.849 1126.549 938.935 1281.764"/>
        </g>
      </g>
      <g id="Kaki">
        <g>
          <path class="cls-3" d="M1412.2,1864.238c3.701,0,6.676,2.975,6.676,6.676,0,4.136-4.136,6.241-6.676,6.748-2.032.363-5.515.218-6.821-2.032-.871-1.596-.29-3.483.073-4.717.435-1.088,2.177-6.676,6.748-6.676Z"/>
          <path class="cls-9" d="M1418.876,1870.914c0,4.136-4.136,6.241-6.676,6.748-2.032.363-5.515.218-6.821-2.032-.871-1.596-.29-3.483.073-4.717.435-1.088,2.177-6.676,6.748-6.676,3.701,0,6.676,2.975,6.676,6.676Z"/>
        </g>
        <g>
          <path class="cls-3" d="M1412.925,1845.153c1.959.943,2.903,3.918,2.54,6.313-.508,3.701-4.064,6.023-7.111,6.531-.435.145-4.499.871-6.386-1.596-1.234-1.596-.871-3.628-.726-4.934.145-.871.653-3.773,2.975-5.297,1.016-.653,2.395-.798,5.225-1.016,1.814-.218,2.83-.29,3.483,0Z"/>
          <path class="cls-9" d="M1415.465,1851.467c-.508,3.701-4.064,6.023-7.111,6.531-.435.145-4.499.871-6.386-1.596-1.234-1.596-.871-3.628-.726-4.934.145-.871.653-3.773,2.975-5.297,1.016-.653,2.395-.798,5.225-1.016,1.814-.218,2.83-.29,3.483,0,1.959.943,2.903,3.918,2.54,6.313Z"/>
        </g>
        <g>
          <path class="cls-3" d="M1405.959,1823.602c2.395,1.379,4.426,4.281,4.209,7.256-.218,3.12-2.685,5.08-4.934,6.821-1.596,1.306-3.411,2.685-6.095,2.975-.218,0-5.587.435-8.417-3.556-.363-.508-1.959-2.685-1.524-5.37.508-3.193,3.338-4.862,5.225-6.095,2.249-1.379,7.184-4.426,11.538-2.032Z"/>
          <path class="cls-9" d="M1410.168,1830.858c-.218,3.12-2.685,5.08-4.934,6.821-1.596,1.306-3.411,2.685-6.095,2.975-.218,0-5.587.435-8.417-3.556-.363-.508-1.959-2.685-1.524-5.37.508-3.193,3.338-4.862,5.225-6.095,2.249-1.379,7.184-4.426,11.538-2.032,2.395,1.379,4.426,4.281,4.209,7.256Z"/>
        </g>
        <g>
          <path class="cls-3" d="M1397.687,1801.252c1.234,1.742,1.234,3.628,1.161,4.789-.145,6.095-4.862,12.409-11.32,14.803-2.032.726-5.225,1.887-8.2.435-4.064-1.959-5.37-7.764-4.572-11.901,1.306-7.256,9.506-11.61,15.746-11.32,1.161.073,5.152.29,7.184,3.193Z"/>
          <path class="cls-9" d="M1398.848,1806.041c-.145,6.095-4.862,12.409-11.32,14.803-2.032.726-5.225,1.887-8.2.435-4.064-1.959-5.37-7.764-4.572-11.901,1.306-7.256,9.506-11.61,15.746-11.32,1.161.073,5.152.29,7.184,3.193,1.234,1.742,1.234,3.628,1.161,4.789Z"/>
        </g>
        <g>
          <path class="cls-3" d="M1375.119,1779.628c.943.653,7.547,5.442,6.531,10.159-.29,1.669-1.524,2.685-2.612,3.628-8.853,7.547-15.674,10.449-15.674,10.449-8.635,3.701-12.916,5.515-15.674,3.991-4.934-2.757-5.152-12.046-3.12-18.069,2.975-8.998,11.465-12.263,12.336-12.626,5.007-1.814,9.433-1.088,10.522-.871,1.379.29,4.499,1.016,7.692,3.338Z"/>
          <path class="cls-9" d="M1381.65,1789.787c-.29,1.669-1.524,2.685-2.612,3.628-8.853,7.547-15.674,10.449-15.674,10.449-8.635,3.701-12.916,5.515-15.674,3.991-4.934-2.757-5.152-12.046-3.12-18.069,2.975-8.998,11.465-12.263,12.336-12.626,5.007-1.814,9.433-1.088,10.522-.871,1.379.29,4.499,1.016,7.692,3.338.943.653,7.547,5.442,6.531,10.159Z"/>
        </g>
        <g>
          <path class="cls-3" d="M1383.755,1841.815c6.458,10.522,19.157,31.058,12.046,51.884-4.136,12.046-13.57,20.608-15.746,22.568-5.442,4.862-8.345,5.587-18.504,12.626-8.417,5.805-14.077,10.667-20.391,16.037-7.837,6.676-18.359,15.674-29.679,28.735-12.771,14.803-12.409,18.431-22.422,26.268-6.313,4.934-13.86,10.594-24.817,11.393-3.12.218-17.198,1.306-25.615-8.635-5.37-6.386-5.66-13.932-5.805-17.27-.145-3.556.073-12.409,7.692-24.091,11.901-18.431,28.082-22.205,49.924-41.87,1.161-1.016,5.95-5.442,10.594-12.481,2.685-4.209,6.023-9.433,6.748-16.4.581-5.007-.581-8.2-1.524-12.626,0,0-2.612-12.191-1.234-26.849,1.088-11.901,7.764-32.654,24.382-38.604,10.159-3.701,19.81-.218,24.454,1.379,16.254,5.805,24.382,19.012,29.897,27.937Z"/>
          <path class="cls-9" d="M1361.55,1928.893c-8.417,5.805-14.077,10.667-20.391,16.037-7.837,6.676-18.359,15.674-29.679,28.735-12.771,14.803-12.409,18.431-22.422,26.268-6.313,4.934-13.86,10.594-24.817,11.393-3.12.218-17.198,1.306-25.615-8.635-5.37-6.386-5.66-13.932-5.805-17.27-.145-3.556.073-12.409,7.692-24.091,11.901-18.431,28.082-22.205,49.924-41.87,1.161-1.016,5.95-5.442,10.594-12.481,2.685-4.209,6.023-9.433,6.748-16.4.581-5.007-.581-8.2-1.524-12.626,0,0-2.612-12.191-1.234-26.849,1.088-11.901,7.764-32.654,24.382-38.604,10.159-3.701,19.81-.218,24.454,1.379,16.254,5.805,24.382,19.012,29.897,27.937,6.458,10.522,19.157,31.058,12.046,51.884-4.136,12.046-13.57,20.608-15.746,22.568-5.442,4.862-8.345,5.587-18.504,12.626Z"/>
        </g>
      </g>
      <g>
        <path class="cls-3" d="M813.181,1921.056c1.016,6.676-.581,12.263-1.742,16.254-.29,1.016-1.379,3.556-3.483,8.708-3.773,9.216-4.789,10.957-6.894,11.901-1.742.871-3.193.653-5.08,2.249-1.669,1.451-2.395,3.265-2.612,3.918-1.161,2.975-7.039,18.141-16.4,24.672-5.152,3.556-10.667,4.064-13.134,4.354-1.379.073-6.095.435-15.529-2.467-7.982-2.467-13.932-5.587-17.633-7.692-9.143-5.152-11.102-7.474-27.647-19.084-13.787-9.724-16.69-11.102-19.81-12.263-6.531-2.395-7.692-1.451-18.576-4.717-3.628-1.016-8.998-3.193-19.738-7.474-9.288-3.701-13.715-5.587-16.182-10.232-.508-1.016-2.104-3.991-.871-6.168,1.306-2.249,5.08-2.177,6.603-2.177,3.846.073,5.95,1.451,9.578,2.975,4.499,1.814,4.354.943,13.642,3.483,7.402,2.032,6.821,2.395,13.424,4.281,9.869,2.685,16.907,4.572,19.447,1.524,1.161-1.379,1.161-3.411.726-4.789-.943-2.757-4.136-3.773-6.966-4.862-4.644-1.814-8.708-4.934-13.207-7.111-5.442-2.54-12.699-7.982-27.357-18.867-12.626-9.433-10.014-8.272-13.642-10.449-4.644-2.83-8.417-4.354-11.175-8.925-.581-1.016-3.265-5.515-1.524-8.345.943-1.451,2.757-2.032,3.773-2.395.653-.145,2.467-.653,4.934-.29,3.483.653,5.733,2.685,7.402,3.991,2.249,1.814,1.088.435,11.393,6.386,16.037,9.361,24.019,14.005,30.477,18.431,5.587,3.846,13.424,9.651,19.23,8.2.726-.145,2.975-.726,3.338-2.177.363-1.524-1.596-3.193-2.83-4.209-3.628-3.048-6.821-6.676-10.667-9.506-7.982-5.95-6.313-6.023-16.907-14.223-3.265-2.54-4.862-3.628-7.329-6.023-4.209-4.064-3.846-5.007-7.764-8.998-2.032-2.104-5.225-4.717-11.538-9.869-3.556-2.903-5.297-4.209-6.023-6.894-.073-.508-.943-4.064,1.161-6.821,2.322-3.193,6.748-3.048,8.78-2.975,2.83.073,4.862.943,6.676,1.742,2.322,1.016,4.354,2.54,8.272,5.515,8.925,6.821,9.724,7.474,10.74,8.345,2.903,2.467,3.483,3.12,6.748,6.023,5.805,5.225,7.619,6.313,12.046,10.159,10.957,9.433,11.393,12.263,19.23,17.053,3.338,2.032,9.071,5.515,11.32,3.628,2.032-1.742.435-7.402-1.379-10.74-1.016-1.814-1.959-2.83-8.563-9.216-5.37-5.225-4.644-4.426-5.587-5.37-5.442-5.587-6.313-7.474-11.393-12.481-.508-.435-2.395-2.249-5.08-4.572-6.603-5.587-8.127-5.587-12.844-9.796-3.12-2.83-6.313-5.66-8.49-10.522-.871-2.032-2.612-6.095-1.088-9.724.29-.726,1.234-2.975,3.193-3.628.798-.29,2.032-.363,2.249-.435,0,0,1.088-.073,2.249.073,11.393,1.234,26.123,16.98,26.123,16.98,1.887,2.032,1.669,1.959,7.837,8.853,3.701,4.136,6.748,7.402,7.402,8.2,7.547,8.127,12.626,10.449,21.116,18.214,13.642,12.481,15.601,20.245,26.051,23.003,1.742.435,6.966,1.814,9.216-.653,1.669-1.887.943-5.08.435-7.256-4.426-19.447-1.742-14.077-4.572-22.422-3.483-10.522-6.458-15.311-5.007-20.899.435-1.524,1.379-3.773,2.54-5.95,1.742-3.265,3.048-5.442,5.007-5.95,2.903-.653,5.878,2.54,7.547,4.426,4.281,4.717,4.717,8.345,8.417,17.198.218.653-.218-.435,7.111,15.021,4.209,8.853,6.313,13.279,6.458,13.642,4.426,10.812,2.395,11.755,7.474,27.647.943,2.757,2.249,7.039,5.007,15.674,1.451,4.789,1.669,5.515,1.887,6.894Z"/>
        <path class="cls-9" d="M813.181,1921.056c1.016,6.676-.581,12.263-1.742,16.254-.29,1.016-1.379,3.556-3.483,8.708-3.773,9.216-4.789,10.957-6.894,11.901-1.742.871-3.193.653-5.08,2.249-1.669,1.451-2.395,3.265-2.612,3.918-1.161,2.975-7.039,18.141-16.4,24.672-5.152,3.556-10.667,4.064-13.134,4.354-1.379.073-6.095.435-15.529-2.467-7.982-2.467-13.932-5.587-17.633-7.692-9.143-5.152-11.102-7.474-27.647-19.084-13.787-9.724-16.69-11.102-19.81-12.263-6.531-2.395-7.692-1.451-18.576-4.717-3.628-1.016-8.998-3.193-19.738-7.474-9.288-3.701-13.715-5.587-16.182-10.232-.508-1.016-2.104-3.991-.871-6.168,1.306-2.249,5.08-2.177,6.603-2.177,3.846.073,5.95,1.451,9.578,2.975,4.499,1.814,4.354.943,13.642,3.483,7.402,2.032,6.821,2.395,13.424,4.281,9.869,2.685,16.907,4.572,19.447,1.524,1.161-1.379,1.161-3.411.726-4.789-.943-2.757-4.136-3.773-6.966-4.862-4.644-1.814-8.708-4.934-13.207-7.111-5.442-2.54-12.699-7.982-27.357-18.867-12.626-9.433-10.014-8.272-13.642-10.449-4.644-2.83-8.417-4.354-11.175-8.925-.581-1.016-3.265-5.515-1.524-8.345.943-1.451,2.757-2.032,3.773-2.395.653-.145,2.467-.653,4.934-.29,3.483.653,5.733,2.685,7.402,3.991,2.249,1.814,1.088.435,11.393,6.386,16.037,9.361,24.019,14.005,30.477,18.431,5.587,3.846,13.424,9.651,19.23,8.2.726-.145,2.975-.726,3.338-2.177.363-1.524-1.596-3.193-2.83-4.209-3.628-3.048-6.821-6.676-10.667-9.506-7.982-5.95-6.313-6.023-16.907-14.223-3.265-2.54-4.862-3.628-7.329-6.023-4.209-4.064-3.846-5.007-7.764-8.998-2.032-2.104-5.225-4.717-11.538-9.869-3.556-2.903-5.297-4.209-6.023-6.894-.073-.508-.943-4.064,1.161-6.821,2.322-3.193,6.748-3.048,8.78-2.975,2.83.073,4.862.943,6.676,1.742,2.322,1.016,4.354,2.54,8.272,5.515,8.925,6.821,9.724,7.474,10.74,8.345,2.903,2.467,3.483,3.12,6.748,6.023,5.805,5.225,7.619,6.313,12.046,10.159,10.957,9.433,11.393,12.263,19.23,17.053,3.338,2.032,9.071,5.515,11.32,3.628,2.032-1.742.435-7.402-1.379-10.74-1.016-1.814-1.959-2.83-8.563-9.216-5.37-5.225-4.644-4.426-5.587-5.37-5.442-5.587-6.313-7.474-11.393-12.481-.508-.435-2.395-2.249-5.08-4.572-6.603-5.587-8.127-5.587-12.844-9.796-3.12-2.83-6.313-5.66-8.49-10.522-.871-2.032-2.612-6.095-1.088-9.724.29-.726,1.234-2.975,3.193-3.628.798-.29,2.032-.363,2.249-.435,0,0,1.088-.073,2.249.073,11.393,1.234,26.123,16.98,26.123,16.98,1.887,2.032,1.669,1.959,7.837,8.853,3.701,4.136,6.748,7.402,7.402,8.2,7.547,8.127,12.626,10.449,21.116,18.214,13.642,12.481,15.601,20.245,26.051,23.003,1.742.435,6.966,1.814,9.216-.653,1.669-1.887.943-5.08.435-7.256-4.426-19.447-1.742-14.077-4.572-22.422-3.483-10.522-6.458-15.311-5.007-20.899.435-1.524,1.379-3.773,2.54-5.95,1.742-3.265,3.048-5.442,5.007-5.95,2.903-.653,5.878,2.54,7.547,4.426,4.281,4.717,4.717,8.345,8.417,17.198.218.653-.218-.435,7.111,15.021,4.209,8.853,6.313,13.279,6.458,13.642,4.426,10.812,2.395,11.755,7.474,27.647.943,2.757,2.249,7.039,5.007,15.674,1.451,4.789,1.669,5.515,1.887,6.894Z"/>
      </g>
      <text id="TEKS_ATAS" data-name="TEKS ATAS" class="cls-1" transform="translate(297.565 958.842) rotate(-54.34)"><tspan x="0" y="0">B</tspan></text>
      <text class="cls-1" transform="translate(408.794 808.317) rotate(-40.352)"><tspan x="0" y="0">H</tspan></text>
      <text class="cls-1" transform="translate(570.269 678.603) rotate(-26.753)"><tspan x="0" y="0">A</tspan></text>
      <text class="cls-1" transform="translate(729.097 601.561) rotate(-13.669)"><tspan x="0" y="0">R</tspan></text>
      <text class="cls-1" transform="translate(919.546 560.152) rotate(-.554)"><tspan x="0" y="0">A</tspan></text>
      <text class="cls-1" transform="translate(1094.984 559.436) rotate(13.615)"><tspan x="0" y="0">W</tspan></text>
      <text class="cls-1" transform="translate(1308.859 618.272) rotate(27.73)"><tspan x="0" y="0">A</tspan></text>
      <text class="cls-1" transform="translate(1463.946 703.114) rotate(40.599)"><tspan x="0" y="0">N</tspan></text>
      <text class="cls-1" transform="translate(1604.165 829.116) rotate(53.659)"><tspan x="0" y="0">A</tspan></text>
      <text id="TEKS_BAWAH" data-name="TEKS BAWAH" class="cls-2" transform="translate(186.524 1819.155) rotate(59.124)"><tspan x="0" y="0">U</tspan></text>
      <text class="cls-2" transform="translate(224.609 1881.77) rotate(54.593)"><tspan x="0" y="0">N</tspan></text>
      <text class="cls-2" transform="translate(267.002 1939.945) rotate(50.971)"><tspan x="0" y="0">I</tspan></text>
      <text class="cls-2" transform="translate(294.979 1974.444) rotate(47.404)"><tspan x="0" y="0">V</tspan></text>
      <text class="cls-2" transform="translate(343.08 2025.763) rotate(43.384)"><tspan x="0" y="0">E</tspan></text>
      <text class="cls-2" transform="translate(385.866 2065.871) rotate(39.32)"><tspan x="0" y="0">R</tspan></text>
      <text class="cls-2" transform="translate(442.149 2111.231) rotate(34.922)"><tspan x="0" y="0">S</tspan></text>
      <text class="cls-2" transform="translate(499.354 2150.225) rotate(31.442)"><tspan x="0" y="0">I</tspan></text>
      <text class="cls-2" transform="translate(537.072 2173.174) rotate(28.185)"><tspan x="0" y="0">T</tspan></text>
      <text class="cls-2" transform="translate(589.179 2200.864) rotate(24.407)"><tspan x="0" y="0">A</tspan></text>
      <text class="cls-2" transform="translate(652.085 2228.874) rotate(20.113)"><tspan x="0" y="0">S</tspan></text>
      <text class="cls-2" transform="translate(717.146 2251.788) rotate(16.974)"><tspan x="0" y="0"> </tspan></text>
      <text class="cls-2" transform="translate(747.209 2260.879) rotate(14.491)"><tspan x="0" y="0">J</tspan></text>
      <text class="cls-2" transform="translate(794.586 2272.876) rotate(11.157)"><tspan x="0" y="0">E</tspan></text>
      <text class="cls-2" transform="translate(852.179 2283.996) rotate(7.076)"><tspan x="0" y="0">N</tspan></text>
      <text class="cls-2" transform="translate(924.42 2292.433) rotate(2.518)"><tspan x="0" y="0">D</tspan></text>
      <text class="cls-2" transform="translate(997.967 2294.919) rotate(-1.577)"><tspan x="0" y="0">E</tspan></text>
      <text class="cls-2" transform="translate(1056.564 2293.068) rotate(-5.609)"><tspan x="0" y="0">R</tspan></text>
      <text class="cls-2" transform="translate(1128.375 2285.433) rotate(-9.952)"><tspan x="0" y="0">A</tspan></text>
      <text class="cls-2" transform="translate(1195.698 2272.945) rotate(-13.733)"><tspan x="0" y="0">L</tspan></text>
      <text class="cls-2" transform="translate(1247.758 2259.671) rotate(-16.351)"><tspan x="0" y="0"> </tspan></text>
      <text class="cls-2" transform="translate(1278.33 2250.853) rotate(-19.413)"><tspan x="0" y="0">A</tspan></text>
      <text class="cls-2" transform="translate(1343.19 2227.543) rotate(-23.803)"><tspan x="0" y="0">C</tspan></text>
      <text class="cls-2" transform="translate(1410.759 2197.14) rotate(-28.372)"><tspan x="0" y="0">H</tspan></text>
      <text class="cls-2" transform="translate(1476.334 2161.45) rotate(-33.528)"><tspan x="0" y="0">M</tspan></text>
      <text class="cls-2" transform="translate(1552.527 2109.632) rotate(-38.536)"><tspan x="0" y="0">A</tspan></text>
      <text class="cls-2" transform="translate(1606.196 2066.33) rotate(-42.971)"><tspan x="0" y="0">D</tspan></text>
      <text class="cls-2" transform="translate(1658.936 2015.905) rotate(-46.231)"><tspan x="0" y="0"> </tspan></text>
      <text class="cls-2" transform="translate(1680.975 1993.032) rotate(-49.201)"><tspan x="0" y="0">Y</tspan></text>
      <text class="cls-2" transform="translate(1719.558 1948.029) rotate(-52.979)"><tspan x="0" y="0">A</tspan></text>
      <text class="cls-2" transform="translate(1760.684 1892.749) rotate(-57.312)"><tspan x="0" y="0">N</tspan></text>
      <text class="cls-2" transform="translate(1798.874 1831.744) rotate(-60.927)"><tspan x="0" y="0">I</tspan></text>
    </g>
  </g>
</svg>